<svg xmlns="http://www.w3.org/2000/svg" viewBox="0 0 517 270" enable-background="new 0 0 517 270"><g><path fill="#92D13D" d="M36.9 26.4l6.2-6.2c9.5-9.4 25-8.8 33.7 1.3l85.8 100c7.5 8.7 7.4 21.6-.2 30.2l-85.5 96.9c-8.8 9.9-24.1 10.4-33.5 1l-6.2-6.2c-8.4-8.4-9-21.8-1.4-31l51.2-61.4c7-8.4 7.1-20.5.3-29.1l-52-65c-7.4-9-6.7-22.2 1.6-30.5z"/><path fill="#49691F" d="M86.9 151.2l-51.2 61.4c-7.6 9.1-7 22.6 1.4 31l6.2 6.2c9.4 9.4 24.7 8.9 33.5-1l18.5-21c7-13.8 10.9-29.4 10.9-45.9 0-20.4-6-39.3-16.2-55.2 3.8 7.8 2.8 17.5-3.1 24.5z"/><g fill="#49691F"><path d="M206.6 209.5h-19.9v-115.7h19.9v12.1c2.8-8.1 12.9-13.9 26.7-13.9 11.8 0 21.7 4.2 29.7 12.6 8.1 8.3 12.1 18.6 12.1 31s-4 22.7-12.1 31.2c-8 8.3-17.9 12.4-29.7 12.4-13.8 0-23.9-5.8-26.7-13.9v44.2zm5.8-92.1c-4.8 4.8-7.3 11-7.3 18.3s2.5 13.4 7.3 18.3c5 4.8 11.1 7.3 18.3 7.3s12.9-2.5 17.6-7.3c4.8-4.8 7.1-11 7.1-18.3s-2.3-13.4-7.1-18.3c-4.6-4.8-10.5-7.3-17.6-7.3s-13.3 2.5-18.3 7.3zM282 61.8h19.9v88.3c0 8.1 2.7 11.6 10 11.6 2.3 0 4.3-.2 6-.7v17.8c-2.3.7-5.5 1-9.5 1-17.6 0-26.4-9-26.4-27.1v-90.9zM385.3 105.9v-12.1h19.9v58.4c0 7.1 1.7 9.8 6.1 9.8 1.2 0 2.7-.2 4.2-.3v16.1c-2.2.8-5.5 1.3-9.8 1.3-4.8 0-8.6-.8-11.6-2.7-3.7-2.5-6-5.8-6.8-10.1-5.8 8.8-15.4 13.1-28.7 13.1-11.8 0-21.7-4.1-29.9-12.6-8-8.5-12-18.8-12-31.2s4-22.7 12-31c8.1-8.5 18.1-12.6 29.9-12.6 13.4 0 23.5 6 26.7 13.9zm-6 48c5-4.8 7.5-11 7.5-18.3s-2.5-13.4-7.5-18.3c-4.8-4.8-11-7.3-18.1-7.3s-12.9 2.5-17.8 7.3c-4.6 4.8-7 11-7 18.3s2.3 13.4 7 18.3c4.8 4.8 10.6 7.3 17.8 7.3s13.3-2.5 18.1-7.3zM422.4 194.2c2.5.8 5.6 1.3 9.3 1.3 3.2 0 5.5-.7 7.3-1.8s3.5-3.7 4.8-7.1l2.2-6-35-86.8h20l24.6 63.1 23.1-63.1h20.1l-37.5 97.3c-2.5 6.5-5.5 11.5-9 14.9-5 4.6-11.6 7-20.1 7-3.7 0-7-.5-9.8-1.3v-17.5z"/></g></g></svg>